<svg xmlns="http://www.w3.org/2000/svg" xmlns:xlink="http://www.w3.org/1999/xlink" viewBox="0,0,256,256" width="50px" height="50px" fill-rule="nonzero"><g fill="#ffffff" fill-rule="nonzero" stroke="none" stroke-width="1" stroke-linecap="butt" stroke-linejoin="miter" stroke-miterlimit="10" stroke-dasharray="" stroke-dashoffset="0" font-family="none" font-weight="none" font-size="none" text-anchor="none" style="mix-blend-mode: normal"><g transform="scale(5.12,5.12)"><path d="M17,4v5h5v-5zM37,4v5h5v-5zM7,10v5h5v-5zM27,10v5h5v-5zM17,16v5h5v-5zM37,16v5h5v-5zM7,22v5h5v-5zM27,22v5h5v-5zM3,32c-0.553,0 -1,0.447 -1,1v13c0,0.553 0.447,1 1,1h44c0.553,0 1,-0.447 1,-1v-13c0,-0.553 -0.447,-1 -1,-1zM7,37.5h4v4h-4zM13,37.5h4v4h-4zM19,37.5h4v4h-4zM25,37.5h4v4h-4zM31,37.5h12v4h-12z"></path></g></g></svg>